# Blender 4.2.1 LTS
# www.blender.org
mtllib ObstacleWithHoleSmall.mtl
o Cube
v -4.000000 1.431148 4.000000
v -4.000000 3.431148 4.000000
v -4.000000 1.431148 -4.000000
v -4.000000 3.431148 -4.000000
v 4.000000 1.431148 4.000000
v 4.000000 3.431148 4.000000
v 4.000000 1.431148 -4.000000
v 4.000000 3.431148 -4.000000
v 1.999035 2.947805 -4.000000
v 2.097380 3.034052 -4.000000
v 2.206141 3.106724 -4.000000
v 2.323458 3.164578 -4.000000
v 2.706141 3.240698 -4.000000
v 2.575615 3.232143 -4.000000
v 2.964961 3.206624 -4.000000
v 2.836668 3.232143 -4.000000
v 2.447322 3.206624 -4.000000
v 1.706141 1.431148 -4.000000
v 1.706141 2.240699 -4.000000
v 1.714697 2.371225 -4.000000
v 1.740216 2.499517 -4.000000
v 1.782262 2.623382 -4.000000
v 3.206141 3.106724 -4.000000
v 3.088825 3.164578 -4.000000
v 1.840116 2.740698 -4.000000
v 1.912788 2.849460 -4.000000
v 3.706141 1.431148 -4.000000
v 3.706141 2.240699 -4.000000
v 3.697586 2.371225 -4.000000
v 3.672067 2.499517 -4.000000
v 3.630021 2.623382 -4.000000
v 3.572167 2.740698 -4.000000
v 3.499495 2.849460 -4.000000
v 3.413248 2.947805 -4.000000
v 3.314903 3.034052 -4.000000
v 1.706141 2.240699 4.000000
v 1.714697 2.371225 4.000000
v 1.740216 2.499517 4.000000
v 1.782262 2.623382 4.000000
v 1.840116 2.740698 4.000000
v 1.912788 2.849460 4.000000
v 2.575615 3.232143 4.000000
v 2.447322 3.206624 4.000000
v 1.999035 2.947805 4.000000
v 2.097380 3.034052 4.000000
v 2.206141 3.106724 4.000000
v 2.323458 3.164578 4.000000
v 2.836668 3.232143 4.000000
v 3.706141 2.240699 4.000000
v 3.697586 2.371225 4.000000
v 3.672067 2.499517 4.000000
v 3.630021 2.623382 4.000000
v 3.572167 2.740698 4.000000
v 3.499495 2.849460 4.000000
v 3.413248 2.947805 4.000000
v 3.314903 3.034052 4.000000
v 3.206141 3.106724 4.000000
v 3.088825 3.164578 4.000000
v 2.964961 3.206624 4.000000
v 2.706141 3.240698 4.000000
v 3.706141 1.431148 4.000000
v 1.706141 1.431148 4.000000
vn -1.0000 -0.0000 -0.0000
vn -0.0000 -0.0000 -1.0000
vn 1.0000 -0.0000 -0.0000
vn -0.0000 -0.0000 1.0000
vn -0.0000 -1.0000 -0.0000
vn -0.0000 1.0000 -0.0000
vn 0.0654 -0.9979 -0.0000
vn 0.1951 -0.9808 -0.0000
vn 0.3214 -0.9469 -0.0000
vn 0.4423 -0.8969 -0.0000
vn 0.5556 -0.8315 -0.0000
vn 0.6593 -0.7518 -0.0000
vn 0.7518 -0.6593 -0.0000
vn 0.8315 -0.5556 -0.0000
vn 0.8969 -0.4423 -0.0000
vn 0.9469 -0.3214 -0.0000
vn 0.9808 -0.1951 -0.0000
vn 0.9979 -0.0654 -0.0000
vn -0.0654 -0.9979 -0.0000
vn -0.1951 -0.9808 -0.0000
vn -0.3214 -0.9469 -0.0000
vn -0.4423 -0.8969 -0.0000
vn -0.5556 -0.8315 -0.0000
vn -0.6593 -0.7518 -0.0000
vn -0.7518 -0.6593 -0.0000
vn -0.8315 -0.5556 -0.0000
vn -0.8969 -0.4423 -0.0000
vn -0.9469 -0.3214 -0.0000
vn -0.9808 -0.1951 -0.0000
vn -0.9979 -0.0654 -0.0000
vt 0.375000 0.000000
vt 0.625000 0.000000
vt 0.625000 0.250000
vt 0.375000 0.250000
vt 0.625000 0.500000
vt 0.375000 0.500000
vt 0.375000 0.490817
vt 0.476194 0.490817
vt 0.492510 0.490550
vt 0.508546 0.489752
vt 0.524029 0.488438
vt 0.538694 0.486630
vt 0.552289 0.484359
vt 0.564582 0.481664
vt 0.575363 0.478591
vt 0.584447 0.475192
vt 0.591679 0.471526
vt 0.596935 0.467655
vt 0.600124 0.463646
vt 0.601194 0.459567
vt 0.600124 0.455488
vt 0.596935 0.451479
vt 0.591679 0.447608
vt 0.584447 0.443942
vt 0.575363 0.440543
vt 0.564582 0.437470
vt 0.552289 0.434775
vt 0.538694 0.432504
vt 0.524029 0.430696
vt 0.508546 0.429382
vt 0.492510 0.428584
vt 0.476194 0.428317
vt 0.375000 0.428317
vt 0.625000 0.750000
vt 0.375000 0.750000
vt 0.625000 1.000000
vt 0.375000 1.000000
vt 0.375000 0.821683
vt 0.476194 0.821683
vt 0.492510 0.821416
vt 0.508546 0.820618
vt 0.524029 0.819304
vt 0.538694 0.817496
vt 0.552289 0.815225
vt 0.564582 0.812530
vt 0.575363 0.809457
vt 0.584447 0.806058
vt 0.591679 0.802392
vt 0.596935 0.798521
vt 0.600124 0.794512
vt 0.601194 0.790433
vt 0.600124 0.786354
vt 0.596935 0.782345
vt 0.591679 0.778474
vt 0.584447 0.774808
vt 0.575363 0.771409
vt 0.564582 0.768336
vt 0.552289 0.765641
vt 0.538694 0.763370
vt 0.524029 0.761562
vt 0.508546 0.760248
vt 0.492510 0.759450
vt 0.476194 0.759183
vt 0.375000 0.759183
vt 0.365817 0.500000
vt 0.365817 0.750000
vt 0.303317 0.750000
vt 0.125000 0.750000
vt 0.125000 0.500000
vt 0.303317 0.500000
vt 0.875000 0.500000
vt 0.875000 0.750000
vt 0.500000 0.707413
vt 0.500000 0.655002
vt 0.398806 0.655002
vt 0.398806 0.707413
vt 0.398806 0.094998
vt 0.500000 0.094998
vt 0.500000 0.042587
vt 0.398806 0.042587
vt 0.766316 0.655002
vt 0.750000 0.655002
vt 0.750000 0.707413
vt 0.766316 0.707413
vt 0.782352 0.655002
vt 0.782352 0.707413
vt 0.797835 0.655002
vt 0.797835 0.707413
vt 0.812500 0.655002
vt 0.812500 0.707413
vt 0.826095 0.655002
vt 0.826095 0.707413
vt 0.875000 0.655002
vt 0.875000 0.707413
vt 0.576095 0.094998
vt 0.625000 0.094998
vt 0.625000 0.042587
vt 0.576095 0.042587
vt 0.562500 0.094998
vt 0.562500 0.042587
vt 0.547835 0.094998
vt 0.547835 0.042587
vt 0.532352 0.094998
vt 0.532352 0.042587
vt 0.516316 0.094998
vt 0.516316 0.042587
vt 0.733684 0.655002
vt 0.733684 0.707413
vt 0.717648 0.655002
vt 0.717648 0.707413
vt 0.702165 0.655002
vt 0.702165 0.707413
vt 0.687500 0.655002
vt 0.687500 0.707413
vt 0.673905 0.655002
vt 0.673905 0.707413
vt 0.625000 0.655002
vt 0.625000 0.707413
vt 0.576095 0.655002
vt 0.576095 0.707413
vt 0.562500 0.655002
vt 0.562500 0.707413
vt 0.547835 0.655002
vt 0.547835 0.707413
vt 0.532352 0.655002
vt 0.532352 0.707413
vt 0.516316 0.655002
vt 0.516316 0.707413
s 0
f 1/1/1 2/2/1 4/3/1 3/4/1
f 3/4/2 4/3/2 8/5/2 7/6/2 27/7/2 28/8/2 29/9/2 30/10/2 31/11/2 32/12/2 33/13/2 34/14/2 35/15/2 23/16/2 24/17/2 15/18/2 16/19/2 13/20/2 14/21/2 17/22/2 12/23/2 11/24/2 10/25/2 9/26/2 26/27/2 25/28/2 22/29/2 21/30/2 20/31/2 19/32/2 18/33/2
f 7/6/3 8/5/3 6/34/3 5/35/3
f 5/35/4 6/34/4 2/36/4 1/37/4 62/38/4 36/39/4 37/40/4 38/41/4 39/42/4 40/43/4 41/44/4 44/45/4 45/46/4 46/47/4 47/48/4 43/49/4 42/50/4 60/51/4 48/52/4 59/53/4 58/54/4 57/55/4 56/56/4 55/57/4 54/58/4 53/59/4 52/60/4 51/61/4 50/62/4 49/63/4 61/64/4
f 27/65/5 7/6/5 5/35/5 61/66/5
f 62/67/5 1/68/5 3/69/5 18/70/5
f 8/5/6 4/71/6 2/72/6 6/34/6
f 49/73/1 28/74/1 27/75/1 61/76/1
f 18/77/3 19/78/3 36/79/3 62/80/3
f 14/81/7 13/82/7 60/83/7 42/84/7
f 17/85/8 14/81/8 42/84/8 43/86/8
f 12/87/9 17/85/9 43/86/9 47/88/9
f 11/89/10 12/87/10 47/88/10 46/90/10
f 10/91/11 11/89/11 46/90/11 45/92/11
f 9/93/12 10/91/12 45/92/12 44/94/12
f 26/95/13 9/96/13 44/97/13 41/98/13
f 25/99/14 26/95/14 41/98/14 40/100/14
f 22/101/15 25/99/15 40/100/15 39/102/15
f 21/103/16 22/101/16 39/102/16 38/104/16
f 20/105/17 21/103/17 38/104/17 37/106/17
f 19/78/18 20/105/18 37/106/18 36/79/18
f 13/82/19 16/107/19 48/108/19 60/83/19
f 16/107/20 15/109/20 59/110/20 48/108/20
f 59/110/21 15/109/21 24/111/21 58/112/21
f 58/112/22 24/111/22 23/113/22 57/114/22
f 57/114/23 23/113/23 35/115/23 56/116/23
f 56/116/24 35/115/24 34/117/24 55/118/24
f 55/118/25 34/117/25 33/119/25 54/120/25
f 54/120/26 33/119/26 32/121/26 53/122/26
f 53/122/27 32/121/27 31/123/27 52/124/27
f 52/124/28 31/123/28 30/125/28 51/126/28
f 51/126/29 30/125/29 29/127/29 50/128/29
f 50/128/30 29/127/30 28/74/30 49/73/30
