# Blender 4.2.1 LTS
# www.blender.org
mtllib ObstacleWithHoleSmall1.mtl
o Cube
v -2.000000 1.048679 1.000000
v -2.000000 3.048679 1.000000
v -2.000000 1.048679 -1.000000
v -2.000000 3.048679 -1.000000
v 2.000000 1.048679 1.000000
v 2.000000 3.048679 1.000000
v 2.000000 1.048679 -1.000000
v 2.000000 3.048679 -1.000000
v -1.000000 1.858230 -1.000000
v -0.991445 1.988756 -1.000000
v -0.965926 2.117049 -1.000000
v -0.923880 2.240913 -1.000000
v -0.382683 2.782109 -1.000000
v -0.500000 2.724255 -1.000000
v -0.866025 2.358230 -1.000000
v -0.793353 2.466991 -1.000000
v -0.707107 2.565336 -1.000000
v -0.608761 2.651583 -1.000000
v -0.130526 2.849675 -1.000000
v 0.000000 2.858230 -1.000000
v 0.130526 2.849675 -1.000000
v -0.000000 2.858230 -1.000000
v 0.382683 2.782109 -1.000000
v 0.500000 2.724255 -1.000000
v 0.793353 2.466991 -1.000000
v 0.707107 2.565336 -1.000000
v 0.608761 2.651583 -1.000000
v 0.258819 2.824156 -1.000000
v -0.258819 2.824156 -1.000000
v -1.000000 1.048679 -1.000000
v 0.923880 2.240913 -1.000000
v 0.866025 2.358230 -1.000000
v 1.000000 1.048679 -1.000000
v 1.000000 1.858230 -1.000000
v 0.991445 1.988756 -1.000000
v 0.965926 2.117049 -1.000000
v -0.793353 2.466991 1.000000
v -0.707107 2.565336 1.000000
v -0.500000 2.724255 1.000000
v -0.608761 2.651583 1.000000
v -0.382683 2.782109 1.000000
v -0.258819 2.824156 1.000000
v -0.130526 2.849675 1.000000
v 0.130526 2.849675 1.000000
v 0.000000 2.858230 1.000000
v -0.000000 2.858230 1.000000
v 0.382683 2.782109 1.000000
v 0.500000 2.724255 1.000000
v 1.000000 1.858230 1.000000
v 0.991445 1.988756 1.000000
v 0.965926 2.117049 1.000000
v 0.923880 2.240913 1.000000
v 0.866025 2.358230 1.000000
v 0.793353 2.466991 1.000000
v 0.707107 2.565336 1.000000
v 0.608761 2.651583 1.000000
v 0.258819 2.824156 1.000000
v -1.000000 1.048679 1.000000
v -1.000000 1.858230 1.000000
v -0.991445 1.988756 1.000000
v -0.965926 2.117049 1.000000
v 1.000000 1.048679 1.000000
v -0.923880 2.240913 1.000000
v -0.866025 2.358230 1.000000
vn -1.0000 -0.0000 -0.0000
vn -0.0000 -0.0000 -1.0000
vn 1.0000 -0.0000 -0.0000
vn -0.0000 -0.0000 1.0000
vn -0.0000 -1.0000 -0.0000
vn -0.0000 1.0000 -0.0000
vn 0.0654 -0.9979 -0.0000
vn 0.1951 -0.9808 -0.0000
vn 0.3214 -0.9469 -0.0000
vn 0.4423 -0.8969 -0.0000
vn 0.5556 -0.8315 -0.0000
vn 0.6593 -0.7518 -0.0000
vn 0.7518 -0.6593 -0.0000
vn 0.8315 -0.5556 -0.0000
vn 0.8969 -0.4423 -0.0000
vn 0.9469 -0.3214 -0.0000
vn 0.9808 -0.1951 -0.0000
vn 0.9979 -0.0654 -0.0000
vn -0.0654 -0.9979 -0.0000
vn -0.1951 -0.9808 -0.0000
vn -0.3214 -0.9469 -0.0000
vn -0.4423 -0.8969 -0.0000
vn -0.5556 -0.8315 -0.0000
vn -0.6593 -0.7518 -0.0000
vn -0.7518 -0.6593 -0.0000
vn -0.8315 -0.5556 -0.0000
vn -0.8969 -0.4423 -0.0000
vn -0.9469 -0.3214 -0.0000
vn -0.9808 -0.1951 -0.0000
vn -0.9979 -0.0654 -0.0000
vt 0.375000 0.000000
vt 0.625000 0.000000
vt 0.625000 0.250000
vt 0.375000 0.250000
vt 0.625000 0.500000
vt 0.375000 0.500000
vt 0.375000 0.437500
vt 0.476194 0.437500
vt 0.492510 0.436965
vt 0.508546 0.435370
vt 0.524029 0.432742
vt 0.538694 0.429127
vt 0.552289 0.424585
vt 0.564582 0.419194
vt 0.575363 0.413048
vt 0.584447 0.406250
vt 0.591679 0.398918
vt 0.596935 0.391176
vt 0.600124 0.383158
vt 0.601194 0.375000
vt 0.601194 0.375000
vt 0.600124 0.366842
vt 0.596935 0.358824
vt 0.591679 0.351082
vt 0.584447 0.343750
vt 0.575363 0.336952
vt 0.564582 0.330806
vt 0.552289 0.325415
vt 0.538694 0.320873
vt 0.524029 0.317258
vt 0.508546 0.314630
vt 0.492510 0.313035
vt 0.476194 0.312500
vt 0.375000 0.312500
vt 0.625000 0.750000
vt 0.375000 0.750000
vt 0.375000 0.812500
vt 0.625000 1.000000
vt 0.375000 1.000000
vt 0.375000 0.937500
vt 0.476194 0.937500
vt 0.492510 0.936965
vt 0.508546 0.935370
vt 0.524029 0.932742
vt 0.538694 0.929127
vt 0.552289 0.924585
vt 0.564582 0.919194
vt 0.575363 0.913048
vt 0.584447 0.906250
vt 0.591679 0.898918
vt 0.596935 0.891176
vt 0.600124 0.883158
vt 0.601194 0.875000
vt 0.601194 0.875000
vt 0.600124 0.866842
vt 0.596935 0.858824
vt 0.591679 0.851082
vt 0.584447 0.843750
vt 0.575363 0.836952
vt 0.564582 0.830806
vt 0.552289 0.825415
vt 0.538694 0.820873
vt 0.524029 0.817258
vt 0.508546 0.814630
vt 0.492510 0.813035
vt 0.476194 0.812500
vt 0.312500 0.500000
vt 0.312500 0.750000
vt 0.125000 0.750000
vt 0.125000 0.500000
vt 0.187500 0.500000
vt 0.187500 0.750000
vt 0.875000 0.500000
vt 0.875000 0.750000
vt 0.750000 0.674656
vt 0.750000 0.687759
vt 0.500000 0.687759
vt 0.500000 0.674656
vt 0.398806 0.674656
vt 0.398806 0.687759
vt 0.398806 0.075344
vt 0.500000 0.075344
vt 0.500000 0.062241
vt 0.398806 0.062241
vt 0.766316 0.674656
vt 0.766316 0.687759
vt 0.782352 0.674656
vt 0.782352 0.687759
vt 0.797835 0.674656
vt 0.797835 0.687759
vt 0.812500 0.674656
vt 0.812500 0.687759
vt 0.826095 0.674656
vt 0.826095 0.687759
vt 0.875000 0.674656
vt 0.875000 0.687759
vt 0.576095 0.075344
vt 0.625000 0.075344
vt 0.625000 0.062241
vt 0.576095 0.062241
vt 0.562500 0.075344
vt 0.562500 0.062241
vt 0.547835 0.075344
vt 0.547835 0.062241
vt 0.532352 0.075344
vt 0.532352 0.062241
vt 0.516316 0.075344
vt 0.516316 0.062241
vt 0.733684 0.674656
vt 0.733684 0.687759
vt 0.717648 0.674656
vt 0.717648 0.687759
vt 0.702165 0.674656
vt 0.702165 0.687759
vt 0.687500 0.674656
vt 0.687500 0.687759
vt 0.673905 0.674656
vt 0.673905 0.687759
vt 0.625000 0.674656
vt 0.625000 0.687759
vt 0.576095 0.674656
vt 0.576095 0.687759
vt 0.562500 0.674656
vt 0.562500 0.687759
vt 0.547835 0.674656
vt 0.547835 0.687759
vt 0.532352 0.674656
vt 0.532352 0.687759
vt 0.516316 0.674656
vt 0.516316 0.687759
s 0
f 1/1/1 2/2/1 4/3/1 3/4/1
f 3/4/2 4/3/2 8/5/2 7/6/2 33/7/2 34/8/2 35/9/2 36/10/2 31/11/2 32/12/2 25/13/2 26/14/2 27/15/2 24/16/2 23/17/2 28/18/2 21/19/2 20/20/2 22/21/2 19/22/2 29/23/2 13/24/2 14/25/2 18/26/2 17/27/2 16/28/2 15/29/2 12/30/2 11/31/2 10/32/2 9/33/2 30/34/2
f 7/6/3 8/5/3 6/35/3 5/36/3
f 62/37/4 5/36/4 6/35/4 2/38/4 1/39/4 58/40/4 59/41/4 60/42/4 61/43/4 63/44/4 64/45/4 37/46/4 38/47/4 40/48/4 39/49/4 41/50/4 42/51/4 43/52/4 46/53/4 45/54/4 44/55/4 57/56/4 47/57/4 48/58/4 56/59/4 55/60/4 54/61/4 53/62/4 52/63/4 51/64/4 50/65/4 49/66/4
f 33/67/5 7/6/5 5/36/5 62/68/5
f 1/69/5 3/70/5 30/71/5 58/72/5
f 8/5/6 4/73/6 2/74/6 6/35/6
f 22/75/5 20/75/5 45/76/5 46/76/5
f 49/77/1 34/78/1 33/79/1 62/80/1
f 30/81/3 9/82/3 59/83/3 58/84/3
f 19/85/7 22/75/7 46/76/7 43/86/7
f 29/87/8 19/85/8 43/86/8 42/88/8
f 13/89/9 29/87/9 42/88/9 41/90/9
f 14/91/10 13/89/10 41/90/10 39/92/10
f 18/93/11 14/91/11 39/92/11 40/94/11
f 17/95/12 18/93/12 40/94/12 38/96/12
f 16/97/13 17/98/13 38/99/13 37/100/13
f 15/101/14 16/97/14 37/100/14 64/102/14
f 12/103/15 15/101/15 64/102/15 63/104/15
f 11/105/16 12/103/16 63/104/16 61/106/16
f 10/107/17 11/105/17 61/106/17 60/108/17
f 9/82/18 10/107/18 60/108/18 59/83/18
f 20/75/19 21/109/19 44/110/19 45/76/19
f 21/109/20 28/111/20 57/112/20 44/110/20
f 28/111/21 23/113/21 47/114/21 57/112/21
f 23/113/22 24/115/22 48/116/22 47/114/22
f 48/116/23 24/115/23 27/117/23 56/118/23
f 56/118/24 27/117/24 26/119/24 55/120/24
f 55/120/25 26/119/25 25/121/25 54/122/25
f 32/123/26 53/124/26 54/122/26 25/121/26
f 53/124/27 32/123/27 31/125/27 52/126/27
f 52/126/28 31/125/28 36/127/28 51/128/28
f 51/128/29 36/127/29 35/129/29 50/130/29
f 50/130/30 35/129/30 34/78/30 49/77/30
